<svg xmlns="http://www.w3.org/2000/svg" xmlns:xlink="http://www.w3.org/1999/xlink" viewBox="0,0,256,256" width="48px" height="48px" fill-rule="nonzero"><defs><linearGradient x1="6.221" y1="5.221" x2="37.408" y2="36.408" gradientUnits="userSpaceOnUse" id="color-1"><stop offset="0" stop-color="#fed100"></stop><stop offset="1" stop-color="#e36001"></stop></linearGradient><linearGradient x1="29.373" y1="20.668" x2="37.64" y2="39.146" gradientUnits="userSpaceOnUse" id="color-2"><stop offset="0" stop-color="#81c0f4"></stop><stop offset="1" stop-color="#339af0"></stop></linearGradient></defs><g fill="none" fill-rule="nonzero" stroke="none" stroke-width="1" stroke-linecap="butt" stroke-linejoin="miter" stroke-miterlimit="10" stroke-dasharray="" stroke-dashoffset="0" font-family="none" font-weight="none" font-size="none" text-anchor="none" style="mix-blend-mode: normal"><g transform="scale(5.33333,5.33333)"><path d="M24,4c-10.493,0 -19,8.507 -19,19c0,10.493 8.507,19 19,19c10.493,0 19,-8.507 19,-19c0,-10.493 -8.507,-19 -19,-19z" fill="url(#color-1)"></path><path d="M38.998,23.485c-2.403,-4.882 -11.494,-4.479 -13.366,2.137c-7.157,0.25 -7.769,12.23 -0.632,12.107c0.857,0 6.558,0 10.995,0c3.923,-3.199 6.525,-7.935 6.927,-13.289c-0.724,-0.664 -2.596,-1.221 -3.924,-0.955z" fill="#000000" opacity="0.05"></path><path d="M38.925,23.674c-2.594,-4.861 -11.378,-4.165 -13.075,2.081c-6.67,0.22 -7.012,11.007 -0.351,11.064c0.89,0.008 7.525,0 11.405,0c3.362,-3.048 5.591,-7.334 5.999,-12.14c-0.846,-0.731 -2.606,-1.254 -3.978,-1.005z" fill="#000000" opacity="0.07"></path><path d="M38.852,23.863c-2.786,-4.841 -11.263,-3.852 -12.783,2.025c-6.183,0.19 -6.254,9.968 -0.069,10.022c0.923,0.008 8.491,0 11.815,0c2.802,-2.897 4.657,-6.733 5.071,-10.99c-0.97,-0.799 -2.619,-1.289 -4.034,-1.057z" fill="#000000" opacity="0.07"></path><path d="M39.5,24c-0.245,0 -0.484,0.022 -0.721,0.053c-1.261,-1.843 -3.378,-3.053 -5.779,-3.053c-3.178,0 -5.858,2.12 -6.712,5.021c-2.384,0.113 -4.288,2.066 -4.288,4.479c0,2.485 2.015,4.5 4.5,4.5c1.085,0 11.875,0 13,0c3.038,0 5.5,-2.462 5.5,-5.5c0,-3.038 -2.462,-5.5 -5.5,-5.5z" fill="url(#color-2)"></path></g></g></svg>